<?xml version="1.0" encoding="iso-8859-1"?>
<!-- Generator: Adobe Illustrator 19.0.0, SVG Export Plug-In . SVG Version: 6.00 Build 0)  -->
<svg version="1.1" id="Capa_1" xmlns="http://www.w3.org/2000/svg" xmlns:xlink="http://www.w3.org/1999/xlink" x="0px" y="0px"
	 viewBox="0 0 472 472" style="enable-background:new 0 0 472 472;" xml:space="preserve">
<path style="fill:#F3AF3E;" d="M336.002,472h-240c-4.418,0.002-8.002-3.578-8.004-7.996c-0.001-1.103,0.227-2.193,0.668-3.204
	l41.696-96c1.273-2.917,4.154-4.802,7.336-4.8h158.304c3.229,0,6.141,1.94,7.384,4.92l40,96c1.701,4.078-0.226,8.762-4.303,10.463
	C338.107,471.79,337.06,472,336.002,472z"/>
<g>
	<path style="fill:#EA9D2D;" d="M136.002,472c-4.418-0.003-7.997-3.588-7.994-8.006c0.001-0.857,0.139-1.709,0.41-2.522l16-48
		c1.396-4.197,5.931-6.468,10.128-5.072c4.197,1.396,6.468,5.931,5.072,10.128l-16,48C142.527,469.805,139.456,472.011,136.002,472z
		"/>
	<path style="fill:#EA9D2D;" d="M176.002,472c-4.418-0.003-7.997-3.588-7.994-8.006c0.001-0.857,0.139-1.709,0.41-2.522l16-48
		c1.396-4.197,5.931-6.468,10.128-5.072c4.197,1.396,6.468,5.931,5.072,10.128l-16,48C182.527,469.805,179.456,472.011,176.002,472z
		"/>
	<path style="fill:#EA9D2D;" d="M296.002,472c-3.442-0.003-6.496-2.206-7.584-5.472l-16-48c-1.396-4.197,0.875-8.732,5.072-10.128
		c4.197-1.396,8.732,0.875,10.128,5.072l16,48c1.396,4.192-0.87,8.722-5.062,10.118C297.732,471.864,296.87,472.003,296.002,472z"/>
	<path style="fill:#EA9D2D;" d="M256.002,472c-3.442-0.003-6.496-2.206-7.584-5.472l-16-48c-1.396-4.197,0.875-8.732,5.072-10.128
		c4.197-1.396,8.732,0.875,10.128,5.072l16,48c1.396,4.192-0.87,8.722-5.062,10.118C257.732,471.864,256.87,472.003,256.002,472z"/>
</g>
<path style="fill:#8F563B;" d="M216.002,0c8.837,0,16,7.163,16,16v272l0,0h-32l0,0V16C200.002,7.163,207.165,0,216.002,0z"/>
<path style="fill:#EA9D2D;" d="M296.002,376h-160c-4.418,0-8-3.582-8-8v-40c0-2.758,1.421-5.322,3.76-6.784l64-40
	c1.271-0.795,2.741-1.216,4.24-1.216h32c1.499,0,2.969,0.421,4.24,1.216l64,40c2.339,1.462,3.76,4.026,3.76,6.784v40
	C304.002,372.418,300.42,376,296.002,376z"/>
<g>
	<path style="fill:#FBB540;" d="M304.002,288c-4.418,0-8-3.582-8-8v-32c0-4.418,3.582-8,8-8s8,3.582,8,8v32
		C312.002,284.418,308.42,288,304.002,288z"/>
	<path style="fill:#FBB540;" d="M320.002,272h-32c-4.418,0-8-3.582-8-8s3.582-8,8-8h32c4.418,0,8,3.582,8,8S324.42,272,320.002,272z
		"/>
</g>
<g>
	<path style="fill:#EA9D2D;" d="M360.002,328c-4.418,0-8-3.582-8-8v-32c0-4.418,3.582-8,8-8s8,3.582,8,8v32
		C368.002,324.418,364.42,328,360.002,328z"/>
	<path style="fill:#EA9D2D;" d="M376.002,312h-32c-4.418,0-8-3.582-8-8s3.582-8,8-8h32c4.418,0,8,3.582,8,8S380.42,312,376.002,312z
		"/>
</g>
<path style="fill:#D18D28;" d="M240.002,344h-48c-4.418,0-8-3.582-8-8s3.582-8,8-8h48c4.418,0,8,3.582,8,8S244.42,344,240.002,344z"
	/>
<path style="fill:#DA922A;" d="M236.242,281.216c-1.271-0.795-2.741-1.216-4.24-1.216v-24h-32v24c-1.499,0-2.969,0.421-4.24,1.216
	l-35.76,22.344V304h112v-0.44L236.242,281.216z"/>
<g>
</g>
<g>
</g>
<g>
</g>
<g>
</g>
<g>
</g>
<g>
</g>
<g>
</g>
<g>
</g>
<g>
</g>
<g>
</g>
<g>
</g>
<g>
</g>
<g>
</g>
<g>
</g>
<g>
</g>
</svg>
