<svg id="Capa_1" enable-background="new 0 0 512 512" height="512" viewBox="0 0 512 512" width="512" xmlns="http://www.w3.org/2000/svg"><g><g fill="#c7cfe1"><path d="m60 451.968h122v-30h-122c-16.538 0-30-13.462-30-30s13.462-30 30-30c8.013 0 15.542 3.12 21.211 8.789l21.211-21.211c-11.338-11.338-26.397-17.578-42.422-17.578-33.091 0-60 26.909-60 60s26.909 60 60 60z"/><path d="m0 481.968h30v30h-30z"/><path d="m212 421.968h30v30h-30z"/></g><g><path d="m60 481.968h317v30h-317z" fill="#c7cfe1"/></g><path d="m512 375.972-104.394-88.425-38.697 8.697-36.308 36.308-26.219 26.219-18.781 48.783 89.399 104.414 35.552-35.815-17.227-29.649 38.361 8.361 10.574-10.653 10.558-10.637-17.071-29.493 38.205 8.205z" fill="#ffdf40"/><path d="m437.747 404.082 38.205 8.205 36.048-36.315-104.394-88.425-38.697 8.697-36.308 36.308 111.659 111.66 10.558-10.637z" fill="#ffbe40"/><path d="m452 181.968h-30v-30h-30v30h-30v30h30v30h30v-30h30z" fill="#ffdf40"/><path d="m359.114 422.715 53.438 53.438 21.134-21.288-53.361-53.361z" fill="#ffbe40"/><path d="m422.747 359.082-21.211 21.211 53.282 53.282 21.134-21.288z" fill="#ff9f40"/><path d="m332.721 290.006-281.405-281.63c-11.136-11.136-31.322-11.11-42.42-.014-11.699 11.699-11.699 30.735.008 42.442l281.388 281.631z" fill="#576073"/><path d="m311.379 311.348 21.342-21.342-281.405-281.63c-11.136-11.136-31.322-11.11-42.42-.014-.084.084-.162.173-.245.258z" fill="#434b59"/><path d="m295.491 295.442c-.004.004-.005.004-.009.007-29.766 29.751-33.662 76.23-7.881 112.104l60-60.002 60.005-60.005c-3.001-.735-60.368-43.875-112.115 7.896z" fill="#ffbe40"/><path d="m295.491 295.442 52.11 52.11 60.005-60.005c-3.001-.736-60.368-43.876-112.115 7.895z" fill="#ff9f40"/></g></svg>