<?xml version="1.0" encoding="iso-8859-1"?>
<!-- Generator: Adobe Illustrator 19.0.0, SVG Export Plug-In . SVG Version: 6.00 Build 0)  -->
<svg version="1.1" id="Layer_1" xmlns="http://www.w3.org/2000/svg" xmlns:xlink="http://www.w3.org/1999/xlink" x="0px" y="0px"
	 viewBox="0 0 512.034 512.034" style="enable-background:new 0 0 512.034 512.034;" xml:space="preserve">
<ellipse style="fill:#B2EBF2;" cx="269.744" cy="257.424" rx="242.29" ry="244.15"/>
<g>
	<path style="fill:#90CAF9;" d="M404.136,148.525c8.705,30.738-6.036,61.93-32.935,69.667s-55.767-10.911-64.473-41.649
		s6.036-61.93,32.935-69.667C366.562,99.139,395.423,117.787,404.136,148.525z"/>
	<path style="fill:#90CAF9;" d="M473.307,197.186c5.346,18.875,2.063,36.37-7.333,39.081c-9.396,2.702-21.351-10.406-26.705-29.29
		c-5.346-18.884-2.063-36.378,7.333-39.081C456.006,165.194,467.961,178.311,473.307,197.186z"/>
	<path style="fill:#90CAF9;" d="M412.682,263.039c3.78,13.352-5.068,27.597-19.768,31.824s-29.677-3.166-33.457-16.518
		c-3.78-13.353,5.068-27.597,19.768-31.824C393.916,242.295,408.901,249.695,412.682,263.039z"/>
	<path style="fill:#90CAF9;" d="M113.059,131.99c25.097-21.923,56.399-14.927,68.926,0c12.536,14.927,13.58,48.603,48.039,52.812
		s34.467,58.933-29.239,102.08s-55.355-21.014-81.462-41.548S72.328,167.577,113.059,131.99z"/>
	<path style="fill:#90CAF9;" d="M243.334,88.32c2.046,5.784-5.759,13.883-17.436,18.084s-22.807,2.921-24.861-2.862
		c-2.046-5.784,5.759-13.883,17.436-18.084S241.288,82.537,243.334,88.32z"/>
	<path style="fill:#90CAF9;" d="M110.886,365.675c5.472,11.214,5.506,22.487,0.076,25.181c-5.439,2.694-14.279-4.209-19.751-15.424
		c-5.472-11.214-5.506-22.487-0.076-25.181C96.566,347.557,105.406,354.461,110.886,365.675z"/>
	<ellipse style="fill:#90CAF9;" cx="267.101" cy="51.159" rx="22.453" ry="8.419"/>
	<path style="fill:#90CAF9;" d="M469.872,305.783c-2.416,8.672-8.47,14.548-13.521,13.117c-5.051-1.431-7.19-9.614-4.782-18.294
		c2.416-8.672,8.469-14.548,13.521-13.117C470.141,288.919,472.279,297.111,469.872,305.783z"/>
	<ellipse style="fill:#90CAF9;" cx="275.452" cy="258.013" rx="14.102" ry="12.679"/>
</g>
<path style="fill:#6D4C41;" d="M264.289,310.699l-9.825-12.208c24.735-19.902,49.891-43.467,71.595-68.076
	c9.396-10.667,16.004-27.109,19.296-40.689c1.802-7.426,4.108-15.617,5.615-23.152c2.551-12.814-3.94-13.816,6.735-32.001
	c24.988-42.558,49.714-89.94,83.02-126.992c3.789-4.209,10.785-1.81,11.147,3.847l1.406,22.293c0.53,8.402-2.618,16.67-8.562,22.639
	c-30.039,30.123-43.796,45.159-67.074,86.362c-4.167,7.375-7.106,15.112-9.118,25.257c-1.574,7.88-4.395,18.21-6.281,25.956
	c-4.243,17.545-10.389,33.617-22.487,47.357C317.092,266.971,290.135,289.888,264.289,310.699z"/>
<path style="fill:#EF6C00;" d="M283.661,285.013c-1.81-1.861-3.586-3.772-5.312-5.708c-5.784-6.508-15.903-6.575-21.527,0.084
	c-1.078,1.271-1.928,2.29-2.349,2.829c-17.84,22.529-34.535,29.677-62.57,36.008c-57.561,13.007-108.47,43.535-146.844,85.705
	c-11.088,12.182-28.953,15.482-43.871,8.486l-0.32-0.152c-0.345,2.576-0.589,5.144-0.732,7.703
	c-3.864,69.162,76.124,110.482,133.5,71.671c45.766-30.948,81.933-74.929,103.284-126.621c8.512-20.618,23.186-38.113,41.573-50.733
	c0.8-0.547,1.591-1.103,2.374-1.659C290,306.128,291.474,293.036,283.661,285.013z"/>
<g>
	<path style="fill:#E65100;" d="M158.807,455.32l-0.623-0.775c16.745-13.445,29.812-31.495,39.805-51.221
		c7.064-13.942,16.047-27.715,20.256-42.297l1.094,0.311c-4.529,15.676-7.838,31.504-16.518,45.201
		C191.086,425.046,176.007,441.513,158.807,455.32z"/>
	<path style="fill:#E65100;" d="M60.592,478.767l-0.337-0.968c27.092-9.522,53.25-27.143,78.886-43.215
		c27.572-17.284,51.507-37.498,62.671-61.492l1.036,0.48c-11.854,25.467-30.283,49.992-59.236,68.152
		C117.243,458.259,88.13,469.094,60.592,478.767z"/>
	<path style="fill:#E65100;" d="M35.04,438.668c-9.446,0-18.976-2.618-26.604-9.092l1.061-1.246
		c15.323,12.064,33.095,3.208,45.143-2.441c14.186-6.634,27.623-17.006,36.825-28.103l1.254,1.044
		c-9.791,11.787-18.749,27.32-34.509,34.686C51.457,436.672,43.282,438.668,35.04,438.668z"/>
</g>
<g>
	
		<rect x="213.213" y="315.078" transform="matrix(-0.6826 -0.7308 0.7308 -0.6826 163.847 718.157)" style="fill:#FFEB3B;" width="49.335" height="16.838"/>
	
		<rect x="240.419" y="289.643" transform="matrix(-0.6411 -0.7674 0.7674 -0.6411 198.5895 697.4076)" style="fill:#FFEB3B;" width="43.878" height="25.256"/>
</g>
<g>
</g>
<g>
</g>
<g>
</g>
<g>
</g>
<g>
</g>
<g>
</g>
<g>
</g>
<g>
</g>
<g>
</g>
<g>
</g>
<g>
</g>
<g>
</g>
<g>
</g>
<g>
</g>
<g>
</g>
</svg>
