<svg id="Capa_1" enable-background="new 0 0 512.255 512.255" height="512" viewBox="0 0 512.255 512.255" width="512" xmlns="http://www.w3.org/2000/svg"><g><path d="m507.739 25.607-206.84 206.84c-2.93 2.93-6.77 4.39-10.61 4.39-13.311 0-20.025-16.179-10.61-25.61l206.84-206.84c5.86-5.85 15.36-5.85 21.22 0 5.85 5.86 5.85 15.36 0 21.22z" fill="#9d9bdf"/><path d="m507.739 25.607-206.84 206.84c-5.823 5.823-15.337 5.883-21.22 0l228.06-228.06c5.85 5.86 5.85 15.36 0 21.22z" fill="#5e69e2"/><path d="m300.229 340.397c-1.312 2.01-106.139 162.991-107.48 165.05-5.211 7.996-16.464 9.136-23.18 2.42l-165.05-165.049c-6.537-6.538-5.676-17.431 1.93-22.84 1.746-1.239 157.802-112.005 159.39-113.13 5.97-4.24 14.12-3.55 19.29 1.62l113.14 113.14c5.01 5.01 5.83 12.849 1.96 18.789z" fill="#ffdd54"/><path d="m300.229 340.397c-1.312 2.01-106.139 162.991-107.48 165.05-5.211 7.996-16.464 9.136-23.18 2.42l-82.65-82.65 157.48-157.48 53.87 53.87c5.01 5.011 5.83 12.85 1.96 18.79z" fill="#ffb454"/><path d="m196.609 384.318-60.24 90.35-21.63-21.63 56.91-85.36c4.6-6.89 13.91-8.76 20.8-4.16s8.76 13.909 4.16 20.8z" fill="#ff7038"/><path d="m299.419 341.638c-6.688-6.688-127.006-127.006-134.32-134.32 37.993-36.724 99.362-35.507 135.81 3.9 34.01 36.809 33.52 94.199-1.49 130.42z" fill="#0a789b"/><path d="m299.419 341.638-64.46-64.46 65.95-65.96c34.01 36.809 33.52 94.199-1.49 130.42z" fill="#08475e"/></g></svg>