<?xml version="1.0" encoding="iso-8859-1"?>
<!-- Generator: Adobe Illustrator 19.0.0, SVG Export Plug-In . SVG Version: 6.00 Build 0)  -->
<svg version="1.1" id="Layer_1" xmlns="http://www.w3.org/2000/svg" xmlns:xlink="http://www.w3.org/1999/xlink" x="0px" y="0px"
	 viewBox="0 0 512 512" style="enable-background:new 0 0 512 512;" xml:space="preserve">
<g>
	<g>
		<path d="M334.488,319.157c-1.566-2.438-4.266-3.914-7.165-3.914H184.676c-2.899,0-5.598,1.476-7.164,3.914
			c-9.646,15.025-14.744,32.394-14.744,50.23c0,51.409,41.824,93.232,93.232,93.232s93.232-41.824,93.232-93.232
			C349.232,351.552,344.134,334.182,334.488,319.157z M256,445.592c-42.02,0-76.205-34.185-76.205-76.205
			c0-13.044,3.338-25.783,9.695-37.117h133.022c6.356,11.334,9.695,24.074,9.695,37.117
			C332.205,411.407,298.019,445.592,256,445.592z"/>
	</g>
</g>
<g>
	<g>
		<path d="M433.494,204.267v-76.251c10.044-3.735,17.219-13.416,17.219-24.745c0-11.573-7.491-21.423-17.877-24.973V46.767
			c0-14.206-11.557-25.763-25.763-25.763h-20.404c-14.205,0-25.763,11.558-25.763,25.763v31.761
			c-10.044,3.735-17.219,13.416-17.219,24.745c0,11.329,7.175,21.01,17.219,24.745v76.252
			c-26.404,8.788-48.751,26.949-62.827,51.007c-1.325-0.488-2.657-0.964-4.006-1.408v-81.914
			c10.664-3.799,18.322-13.993,18.322-25.946c0-11.953-7.658-22.146-18.322-25.944V85.88c0-14.816-12.053-26.868-26.867-26.868
			h-21.712c-14.814,0-26.867,12.053-26.867,26.868v33.945c-11.028,3.595-19.022,13.97-19.022,26.183
			c0,11.953,7.658,22.146,18.322,25.945v81.914c-1.349,0.444-2.68,0.919-4.006,1.408c-14.077-24.058-36.423-42.218-62.827-51.007
			v-76.252c10.044-3.735,17.219-13.416,17.219-24.745c0-11.329-7.175-21.01-17.219-24.745V46.765
			c0-14.206-11.557-25.763-25.763-25.763h-20.405c-14.206,0-25.763,11.558-25.763,25.763v31.533
			c-10.385,3.551-17.877,13.4-17.877,24.973c0,11.327,7.175,21.01,17.219,24.745v76.251C31.967,219.749,0,263.637,0,313.201
			c0,63.301,51.499,114.801,114.8,114.801c11.003,0,21.814-1.571,32.253-4.626c19.923,40.04,61.272,67.622,108.947,67.622
			s89.024-27.581,108.947-67.622c10.44,3.055,21.251,4.626,32.253,4.626c63.301,0,114.8-51.499,114.8-114.801
			C512,263.637,480.033,219.749,433.494,204.267z M386.669,38.031h20.405c4.818,0,8.736,3.918,8.736,8.736v30.115h-37.876V46.767
			h-0.001C377.933,41.949,381.851,38.031,386.669,38.031z M360.714,103.272c0-5.164,4.2-9.364,9.364-9.364h54.245
			c5.163,0,9.364,4.2,9.364,9.364s-4.2,9.364-9.364,9.364h-54.245C364.915,112.636,360.714,108.436,360.714,103.272z M235.652,85.88
			h0.001c0-5.426,4.414-9.842,9.84-9.842h21.712c5.426,0,9.84,4.416,9.84,9.842v32.592h-41.393V85.88z M216.63,146.006
			c0-5.794,4.714-10.509,10.509-10.509h57.721c5.795,0,10.509,4.714,10.509,10.509s-4.714,10.51-10.509,10.51h-57.721
			C221.345,156.516,216.63,151.802,216.63,146.006z M96.19,46.767c0-4.818,3.918-8.736,8.736-8.736h20.405
			c4.816,0,8.736,3.918,8.736,8.736v30.115H96.19V46.767z M78.314,103.272c0-5.164,4.2-9.364,9.364-9.364h54.245
			c5.163,0,9.364,4.2,9.364,9.364s-4.2,9.364-9.364,9.364H87.677C82.514,112.636,78.314,108.436,78.314,103.272z M114.8,410.975
			c-53.912,0-97.773-43.86-97.773-97.774c0-44.093,29.695-82.908,72.212-94.391c3.714-1.003,6.293-4.372,6.293-8.218v-80.927h38.534
			v80.927c0,3.847,2.58,7.216,6.293,8.218c24.23,6.545,44.949,22.204,57.939,43.53c-2.855,1.542-5.635,3.191-8.339,4.945
			c-0.321-0.523-0.638-1.051-0.968-1.567c-1.566-2.437-4.265-3.912-7.163-3.912H47.771c-2.899,0-5.598,1.475-7.165,3.914
			c-9.117,14.202-13.937,30.62-13.937,47.481c0,48.597,39.535,88.132,88.13,88.132c7.832,0,15.541-1.053,23.032-3.094
			c0.187,0.772,2.535,9.36,2.674,9.322C132.168,409.828,123.555,410.975,114.8,410.975z M146.073,317.217
			c-6.494,13.671-10.331,28.535-11.381,43.628c-0.011,0.159-0.022,0.319-0.032,0.478c-0.41,6.217-0.335,12.455,0.196,18.661
			c0.023,0.263,0.045,0.527,0.07,0.789c0.018,0.199,0.032,0.398,0.051,0.598c-6.542,1.95-13.304,2.934-20.179,2.934
			c-39.207,0-71.103-31.898-71.103-71.105c0-12.071,3.064-23.86,8.899-34.368c0,0,122.259,0,122.24,0.017
			c-0.052,0.047-0.102,0.095-0.154,0.142c-0.403,0.361-0.798,0.73-1.195,1.097c-0.167,0.154-0.337,0.307-0.503,0.462
			C161.833,290.993,152.631,303.407,146.073,317.217z M360.337,374.052c-1.854,36.432-22.832,70.78-56.176,88.154
			c-14.827,7.726-31.445,11.766-48.161,11.766c-44.588,0-85.583-29.573-99.385-72.041c-6.185-19.034-6.832-39.853-1.721-59.21
			c8.014-30.348,29.964-56.147,58.634-68.907c0.018-0.008,0.035-0.019,0.053-0.027c4.83-2.143,9.859-3.955,15.077-5.365
			c3.714-1.002,6.293-4.372,6.293-8.218v-86.659h42.094v86.659c0,3.847,2.58,7.216,6.293,8.218
			c5.218,1.41,10.247,3.221,15.077,5.365c0.018,0.008,0.035,0.019,0.053,0.027c28.346,12.617,50.151,37.996,58.366,67.921
			C359.773,352.434,360.883,363.333,360.337,374.052z M362.764,311.021c-6.227-11.363-14.297-21.617-23.747-30.472
			c-0.166-0.155-0.336-0.306-0.503-0.462c-0.397-0.367-0.792-0.734-1.195-1.097c-0.052-0.047-0.102-0.095-0.173-0.159h122.259
			c5.836,10.509,8.899,22.298,8.899,34.368c0,39.207-31.897,71.105-71.104,71.105c-6.875,0-13.636-0.984-20.178-2.934
			c0.019-0.199,0.033-0.398,0.051-0.598C379.329,356.746,374.366,332.192,362.764,311.021z M397.199,410.975
			c-8.755,0-17.369-1.146-25.706-3.414c0.247-0.747,2.772-9.296,2.674-9.322c7.492,2.04,15.199,3.094,23.032,3.094
			c48.596,0,88.131-39.535,88.131-88.132c0-16.861-4.82-33.28-13.938-47.481c-1.565-2.439-4.265-3.914-7.164-3.914H330.171
			c-2.898,0-5.597,1.475-7.163,3.912c-0.33,0.515-0.647,1.042-0.968,1.566c-2.704-1.754-5.485-3.403-8.352-4.951
			c13.003-21.319,33.721-36.978,57.951-43.523c3.714-1.002,6.293-4.372,6.293-8.218v-80.928h38.534v80.928
			c0,3.847,2.579,7.215,6.293,8.218c42.517,11.483,72.212,50.3,72.212,94.391C494.973,367.114,451.112,410.975,397.199,410.975z"/>
	</g>
</g>
<g>
</g>
<g>
</g>
<g>
</g>
<g>
</g>
<g>
</g>
<g>
</g>
<g>
</g>
<g>
</g>
<g>
</g>
<g>
</g>
<g>
</g>
<g>
</g>
<g>
</g>
<g>
</g>
<g>
</g>
</svg>
