<?xml version="1.0" encoding="UTF-8"?>
<svg viewBox="0 0 50 50" xmlns="http://www.w3.org/2000/svg">
 <g transform="matrix(.45862 .61914 -.61914 .45862 187.67 397.18)">
  <g fill="#22F608">
   <g stroke-width="0">
    <path d="m-507.41-119.15l-5.134-2.914-5.219 3.099 1.185-5.783-4.56-4.005 5.866-0.66 2.401-5.575 2.44 5.375 6.044 0.56-4.358 3.982 1.335 5.921z" stroke="#000"/>
    <path d="m-513.12-122.35c0.61298-0.226 0.61395-0.26 1.06-0.254l1.008 39.022c0 0.082901-0.06601 0.1496-0.14902 0.1496h-3.129c-0.083008 0-0.15002-0.066704-0.15002-0.1496 0.578-5.1498 1.381-38.487 1.36-38.768z"/>
   </g>
   <path d="m-522.8-122.5l-5.989 2.471 0.951 1.806 5.038-4.277z"/>
   <path d="m-523.3-136.17l-4.009-5.089-1.4789 1.406 5.488 3.683z"/>
   <path d="m-502.83-136.59l5.988-2.472-0.95-1.806-5.038 4.278z"/>
   <path d="m-502.33-122.92l4.008 5.09 1.479-1.407-5.487-3.683z"/>
   <path d="m-513-141l0.839-6.424-2.039-0.075 1.2 6.499z"/>
  </g>
 </g>
</svg>
