<svg height="512" viewBox="0 0 60 60" width="512" xmlns="http://www.w3.org/2000/svg"><g id="Page-1" fill="none" fill-rule="evenodd"><g id="006---Witch-Hat-And-Broom" fill-rule="nonzero"><path id="Shape" d="m59 37c0 3.87-12.98 7-29 7s-29-3.13-29-7c0-2.7 6.3-5.03 15.53-6.2-.02.13-.04.26-.05.38-.24 1.82-.37 3.26-.43 4.07-.0306835.4571678.247541.8785962.68 1.03 2.6863135.8341375 5.4626459 1.3444187 8.27 1.52 1.58.13 3.26.2 5 .2s3.42-.07 5-.2c2.7537439-.1797571 5.4780087-.6729429 8.12-1.47.498776-.1724413.7815991-.6989274.65-1.21l-.96-3.69-.19-.73c9.7 1.13 16.38 3.52 16.38 6.3z" fill="#02a0eb"/><path id="Shape" d="m16.53 30.8c-1.062.1333333-2.0816667.2833333-3.059.45-.234 1.786-.362 3.2-.421 4-.0306835.4571678.247541.8785962.68 1.03 2.6863135.8341375 5.4626459 1.3444187 8.27 1.52 1.58.13 3.26.2 5 .2.51 0 1-.018 1.5-.03-1.2-.028-2.383-.078-3.5-.17-2.8073541-.1755813-5.5836865-.6858625-8.27-1.52-.432459-.1514038-.7106835-.5728322-.68-1.03.06-.81.19-2.25.43-4.07.01-.12.03-.25.05-.38z" fill="#0377b3"/><path id="Shape" d="m42.62 30.7.111.425c7.985 1.243 13.269 3.404 13.269 5.875 0 3.748-12.178 6.8-27.5 6.991.4973333.006.9973333.009 1.5.009 16.02 0 29-3.13 29-7 0-2.78-6.68-5.17-16.38-6.3z" fill="#0377b3"/><path id="Shape" d="m56 5s-2 5-7 5c-2.249815.1069308-4.4826309-.4382513-6.43-1.57l-4.57 4.57 4.62 17.7.19.73c-2.545655.739802-5.1645337 1.1991955-7.81 1.37v-1.93c-.0003034-.2766417-.1158808-.5406426-.3189398-.7285196s-.4752281-.2826323-.7510602-.2614804c-1.26.08-2.58.12-3.93.12s-2.67-.04-3.93-.12c-.2758321-.0211519-.5480012.0736034-.7510602.2614804s-.3186364.4518779-.3189398.7285196v1.93c-2.8972562-.1761204-5.7602878-.7204997-8.52-1.62.01-.12.03-.25.05-.38.8-5.9 2.73-15.48 7.2-21.44.1792004-.23648556.4078541-.43101186.67-.57l13.72-7.55c.5377683-.29187772 1.1805231-.31773568 1.74-.07 2.3 1.01 8.9 3.83 16.14 3.83z" fill="#02a0eb"/><path id="Shape" d="m38 13 3.628-3.628c-.155-.05-.3-.1-.444-.154-1.0864941-.39117497-2.3012909-.11432158-3.111.709l-1.857 1.857c-.7531763.7528517-1.0507945 1.8485584-.782 2.879l4.186 16.037.19.73c-1.5725209.4756799-3.1811722.8224931-4.81 1.037v.333c2.6454663-.1708045 5.264345-.630198 7.81-1.37l-.19-.73z" fill="#0377b3"/><path id="Shape" d="m39.86 1.17c-.5594769-.24773568-1.2022317-.22187772-1.74.07l-.483.266c4.845595 2.15102664 10.0637262 3.3377838 15.363 3.494 0 0-1.691 4.2-5.832 4.893.6081638.07014507 1.2198054.10586868 1.832.107 5 0 7-5 7-5-7.24 0-13.84-2.82-16.14-3.83z" fill="#0377b3"/><path id="Shape" d="m43.12 36.33c-2.6419913.7970571-5.3662561 1.2902429-8.12 1.47v-5c2.6454663-.1708045 5.264345-.630198 7.81-1.37l.96 3.69c.1315991.5110726-.151224 1.0375587-.65 1.21z" fill="#ffd300"/><path id="Shape" d="m25 32.8v5c-2.8073541-.1755813-5.5836865-.6858625-8.27-1.52-.432459-.1514038-.7106835-.5728322-.68-1.03.06-.81.19-2.25.43-4.07 2.7597122.8995003 5.6227438 1.4438796 8.52 1.62z" fill="#ffd300"/><path id="Shape" d="m35 30.87v6.93c-1.58.13-3.26.2-5 .2s-3.42-.07-5-.2v-6.93c.0003034-.2766417.1158808-.5406426.3189398-.7285196s.4752281-.2826323.7510602-.2614804c1.26.08 2.58.12 3.93.12s2.67-.04 3.93-.12c.2758321-.0211519.5480012.0736034.7510602.2614804s.3186364.4518779.3189398.7285196z" fill="#ff8f01"/><path id="Shape" d="m33.93 29.88c-.815.052-1.661.081-2.518.1.3549476.1540542.5855337.5030705.588.89v6.93c-1.117.092-2.3.142-3.5.17.5.012.99.03 1.5.03 1.74 0 3.42-.07 5-.2v-6.93c-.0003034-.2766417-.1158808-.5406426-.3189398-.7285196s-.4752281-.2826323-.7510602-.2614804z" fill="#ec7c00"/><path id="Shape" d="m27 52.63v4.74c-.0008771.5645037-.2943003 1.0882109-.7752749 1.3837249-.4809747.2955141-1.0807557.3205977-1.5847251.0662751l-3.64-1.82v-4l3.64-1.82c.5039694-.2543226 1.1037504-.229239 1.5847251.0662751.4809746.295514.7743978.8192212.7752749 1.3837249z" fill="#97522d"/><path id="Rectangle-path" d="m17 53h4v4h-4z" fill="#ec7c00"/><path id="Shape" d="m17 53v4c-1.2957875 1.3631356-3.1215776 2.0934517-5 2-6.05 0-9.24-1.14-10.44-1.7-.34339102-.1682534-.56076527-.5176049-.56-.9v-2.8c-.00076527-.3823951.21660898-.7317466.56-.9 1.2-.56 4.39-1.7 10.44-1.7 1.8784224-.0934517 3.7042125.6368644 5 2z" fill="#97522d"/><path id="Shape" d="m59 54v2c0 .5522847-.4477153 1-1 1h-31v-4h31c.5522847 0 1 .4477153 1 1z" fill="#ffd7a9"/><path id="Shape" d="m58 53h-3c.5522847 0 1 .4477153 1 1v2c0 .5522847-.4477153 1-1 1h3c.5522847 0 1-.4477153 1-1v-2c0-.5522847-.4477153-1-1-1z" fill="#d6bb93"/><path id="Shape" d="m22 24.368c-.0822423-.0001749-.1641648-.0102473-.244-.03-.5357071-.1342174-.8611901-.677286-.727-1.213.8940815-4.1284578 2.5332036-8.059369 4.837-11.6.2050726-.2965477.5539023-.459742.912972-.4271189s.6727767.2560117.8210472.5846622.1081446.7116707-.1050192 1.0024567c-2.1576843 3.3394124-3.6912142 7.042789-4.526 10.93-.1129151.4429815-.511854.7529929-.969.753z" fill="#ececec"/><g fill="#000"><path id="Shape" d="m30 45c14.908 0 30-2.748 30-8 0-4.571-11.1-6.525-16.587-7.211l-4.301-16.489 3.624-3.624c1.9531976.9326086 4.1004758 1.3864713 6.264 1.324 5.612 0 7.837-5.4 7.929-5.629.1231031-.3081337.0853464-.65726373-.1007865-.93195502s-.4963992-.43916681-.8282135-.43904498c-5.4455946-.15343127-10.801076-1.42796231-15.732-3.744-.8458538-.37395618-1.8173198-.33443266-2.63.107l-13.709 7.545c-.3920852.20634191-.733598.49696932-1 .851-4.421 5.889-6.414 15.021-7.293 21.15-6.175.84-15.636 2.823-15.636 7.091 0 5.252 15.092 8 30 8zm12.8-9.623c-2.2142285.6761744-4.493431 1.1176023-6.8 1.317v-2.981c2.0577059-.1826593 4.097529-.5294293 6.1-1.037zm-12.8 1.623c-1.362 0-2.7-.048-4-.134l.006-5.99c2.6617165.1669978 5.3312835.1669978 7.993 0v5.991c-1.299.084-2.639.133-3.999.133zm-12.953-1.671c.042-.55.127-1.537.278-2.824 2.1836513.6039477 4.4179531 1.0069589 6.675 1.204v2.991c-2.3605314-.2034716-4.6919172-.6631768-6.953-1.371zm7.483-25.37c.0944874-.12263111.2150648-.22271379.353-.293l13.7-7.542c.1482764-.08061907.3142258-.12322305.483-.124.1352204.00017227.2688528.02914868.392.085 4.6878856 2.16539449 9.7251151 3.47533153 14.874 3.868-1.1492725 1.85036746-3.1543625 2.99618688-5.332 3.047-2.0567114.10518576-4.1001864-.38433169-5.886-1.41h-.008c-.1436091-.08875094-.2797284-.18908458-.407-.3-.352271-.34581691-.9041824-.3828413-1.2994866-.08717469-.3953043.29566661-.5157166.83555346-.2835134 1.27117469l-3.823 3.823-2 2c-.2599566.2510745-.3642126.6228779-.2726972.9725073.0915155.3496295.3645604.6226744.7141899.7141899.3496294.0915154.7214328-.0127406.9725073-.2726972l.766-.766 4.12 15.8c-1.8363037.466034-3.7063952.7870224-5.593.96v-.831c-.0003156-.5509327-.2278808-1.0773357-.629-1.455-.4058512-.3762502-.9474939-.5708805-1.5-.539-2.5758821.1589994-5.1591179.1589994-7.735 0-.5526928-.0331761-1.0948295.1616317-1.5.539-.4037025.3764527-.6338698.9030146-.636 1.455v.826c-2.1715819-.1954264-4.3196144-.5972408-6.415-1.2.815-5.774 2.722-14.914 6.945-20.541zm-9.162 22.012c-.159 1.34-.257 2.444-.315 3.208-.0636292.9088712.4920285 1.7468719 1.354 2.042 2.784144.8676626 5.6624228 1.3977924 8.573 1.579h.02.009c1.6.128 3.268.2 4.991.2s3.393-.073 4.991-.2h.009.021c2.8550974-.1806685 5.6796214-.6917473 8.417-1.523.9964152-.3373688 1.5635503-1.3865687 1.3-2.405l-.779-2.988c10.185 1.36 14.041 3.822 14.041 5.116 0 2.505-10.652 6-28 6s-28-3.495-28-6c0-1.291 3.6-3.636 13.368-5.029z"/><path id="Shape" d="m31 33h-2c-.5522847 0-1 .4477153-1 1s.4477153 1 1 1h2c.5522847 0 1-.4477153 1-1s-.4477153-1-1-1z"/><path id="Shape" d="m1.142 58.205c1.436.67 4.758 1.795 10.858 1.795 2.0024381.0668421 3.9518454-.6507752 5.433-2h3.331l3.436 1.716c.7126245.3558075 1.5482873.3686674 2.2715228.0349562.7232354-.3337113 1.2557429-.9778646 1.4474772-1.7509562h30.081c1.1045695 0 2-.8954305 2-2v-2c0-1.1045695-.8954305-2-2-2h-30.081c-.1917343-.7730916-.7242418-1.4172449-1.4474772-1.7509562-.7232355-.3337112-1.5588983-.3208513-2.2715228.0349562l-3.436 1.716h-3.331c-1.4811546-1.3492248-3.4305619-2.0668421-5.433-2-6.1 0-9.422 1.125-10.858 1.8-.69534671.3302309-1.13945427 1.0302253-1.142 1.8v2.8c.00062085.7715821.44502604 1.4739914 1.142 1.805zm18.858-2.205h-2v-2h2zm38 0h-30v-2h30zm-32.91-3.927c.1947783-.0968292.4257605-.0861509.6107743.0282361.1850138.1143869.2977966.3162454.2982257.5337639v4.73c-.0004291.2175185-.1132119.419377-.2982257.5337639-.1850138.114387-.415996.1250653-.6107743.0282361l-3.09-1.545v-2.764zm-13.09-.073c1.4646577-.0628386 2.8972141.4410631 4 1.407v.593h-4c-.5522847 0-1 .4477153-1 1s.4477153 1 1 1h4v.593c-1.1027859.9659369-2.5353423 1.4698386-4 1.407-5.928 0-8.977-1.124-10-1.6l-.013-2.791c1.036-.485 4.085-1.609 10.013-1.609z"/><path id="Shape" d="m7 56h1c.55228475 0 1-.4477153 1-1s-.44771525-1-1-1h-1c-.55228475 0-1 .4477153-1 1s.44771525 1 1 1z"/></g></g></g></svg>