<svg height="512" viewBox="0 0 58 57" width="512" xmlns="http://www.w3.org/2000/svg"><g id="Page-1" fill="none" fill-rule="evenodd"><g id="006---Witch-Hat-And-Broom" fill="rgb(0,0,0)" fill-rule="nonzero"><path id="Shape" d="m25.007 28.876-.007 5.99c1.3.086 2.637.134 4 .134s2.7-.049 4-.135v-5.991c-2.6616747.1676638-5.3312417.1683318-7.993.002zm5.993 3.124c0 .5522847-.4477153 1-1 1h-2c-.5522847 0-1-.4477153-1-1s.4477153-1 1-1h2c.5522847 0 1 .4477153 1 1z"/><path id="Shape" d="m35 31.713v2.981c2.306569-.1993977 4.5857715-.6408256 6.8-1.317l-.7-2.7c-2.0024985.5072335-4.0423213.853669-6.1 1.036z"/><path id="Shape" d="m23 31.709c-2.2569221-.1957321-4.491222-.597404-6.675-1.2-.151 1.287-.236 2.274-.278 2.824 2.2612348.7064665 4.5926176 1.1648298 6.953 1.367z"/><path id="Shape" d="m23 28.874c.0003156-.5509327.2278808-1.0773357.629-1.455.4051705-.3773683.9473072-.5721761 1.5-.539 2.5758821.1589994 5.1591179.1589994 7.735 0 .5525061-.0318805 1.0941488.1627498 1.5.539.4037025.3764527.6338698.9030146.636 1.455v.831c1.8867119-.1742912 3.7568048-.4966173 5.593-.964l-4.12-15.8-.766.766c-.3923789.3789722-1.0160848.3735524-1.4018186-.0121814s-.3911536-1.0094397-.0121814-1.4018186l5.823-5.824c-.2337057-.43596147-.1135567-.97728405.2826448-1.27343464s.9493928-.25813294 1.3013552.08943464c1.293 1.235 4.312 1.715 6.3 1.715 2.1776375-.05081312 4.1827275-1.19663254 5.332-3.047-5.1488849-.39266847-10.1861144-1.70260551-14.874-3.868-.2802979-.12476685-.6029746-.11031864-.871.039l-13.7 7.542c-.1379352.07028621-.2585126.17036889-.353.293-4.227 5.627-6.134 14.767-6.949 20.541 2.0953856.6027592 4.2434181 1.0045736 6.415 1.2zm-2-6.506c-.0822423-.0001749-.1641648-.0102473-.244-.03-.5357071-.1342174-.8611901-.677286-.727-1.213.8940815-4.1284578 2.5332036-8.059369 4.837-11.6.2050726-.29654771.5539023-.45974197.912972-.4271189s.6727767.25601173.8210472.58466222c.1482705.32865048.1081446.71167068-.1050192 1.00245668-2.1576843 3.3394124-3.6912142 7.042789-4.526 10.93-.1129151.4429815-.511854.7529929-.969.753z"/><path id="Shape" d="m42.959 29.88.779 2.988c.2635503 1.0184313-.3035848 2.0676312-1.3 2.405-3.857 1.295-9.352 1.727-13.438 1.727-4.105 0-9.71-.437-13.593-1.779-.8619715-.2951281-1.4176292-1.1331288-1.354-2.042.058-.764.156-1.868.315-3.208-9.768 1.393-13.368 3.738-13.368 5.029 0 2.505 10.652 6 28 6s28-3.495 28-6c0-1.294-3.856-3.756-14.041-5.12z"/><path id="Shape" d="m11 52h4v-1.88c-1.1900295-.7678339-2.5842747-1.1582226-4-1.12-6.05 0-9.24 1.14-10.44 1.7-.34339101.1682534-.56076527.5176049-.56.9v2.8c-.00076527.3823951.21660899.7317466.56.9 1.2.56 4.39 1.7 10.44 1.7 1.4157253.0382226 2.8099705-.3521661 4-1.12v-1.88h-4c-.5522847 0-1-.4477153-1-1s.4477153-1 1-1zm-4 2h-1c-.55228475 0-1-.4477153-1-1s.44771525-1 1-1h1c.55228475 0 1 .4477153 1 1s-.44771525 1-1 1z"/><path id="Rectangle-path" d="m17 51h2v4h-2z"/><path id="Shape" d="m26 50.63v4.74c-.0008771.5645037-.2943003 1.0882109-.7752749 1.3837249-.4809747.2955141-1.0807557.3205977-1.5847251.0662751l-2.64-1.32v-5l2.64-1.32c.5039694-.2543226 1.1037504-.229239 1.5847251.0662751.4809746.295514.7743978.8192212.7752749 1.3837249z"/><path id="Shape" d="m26 51h31c.5522847 0 1 .4477153 1 1v2c0 .5522847-.4477153 1-1 1h-31z"/></g></g></svg>